<?xml version="1.0" encoding="UTF-8" standalone="no"?>
<!-- Created with Inkscape (http://www.inkscape.org/) -->

<svg
   width="63.563412mm"
   height="14.97965mm"
   viewBox="0 0 63.563412 14.97965"
   version="1.1"
   id="svg5"
   xml:space="preserve"
   sodipodi:docname="logo.svg"
   inkscape:version="1.2.2 (732a01da63, 2022-12-09)"
   xmlns:inkscape="http://www.inkscape.org/namespaces/inkscape"
   xmlns:sodipodi="http://sodipodi.sourceforge.net/DTD/sodipodi-0.dtd"
   xmlns="http://www.w3.org/2000/svg"
   xmlns:svg="http://www.w3.org/2000/svg"><sodipodi:namedview
     id="namedview9"
     pagecolor="#ffffff"
     bordercolor="#000000"
     borderopacity="0.25"
     inkscape:showpageshadow="2"
     inkscape:pageopacity="0.0"
     inkscape:pagecheckerboard="0"
     inkscape:deskcolor="#d1d1d1"
     inkscape:document-units="mm"
     showgrid="false"
     inkscape:zoom="5.036637"
     inkscape:cx="120.11983"
     inkscape:cy="28.391961"
     inkscape:window-width="1920"
     inkscape:window-height="1009"
     inkscape:window-x="1912"
     inkscape:window-y="-8"
     inkscape:window-maximized="1"
     inkscape:current-layer="layer1" /><defs
     id="defs2" /><g
     id="layer1"
     transform="translate(-50.305882,-27.773339)"><g
       aria-label="iParcel"
       id="text113"
       style="font-weight:600;font-size:14.1111px;font-family:'Noto Sans';-inkscape-font-specification:'Noto Sans Semi-Bold';stroke-width:0.264583"><path
         d="m 70.717591,29.744487 q 0.409222,0 0.691444,0.211666 0.296333,0.197555 0.296333,0.719666 0,0.522111 -0.296333,0.733777 -0.282222,0.211667 -0.691444,0.211667 -0.409222,0 -0.705555,-0.211667 -0.282222,-0.211666 -0.282222,-0.733777 0,-0.522111 0.282222,-0.719666 0.296333,-0.211666 0.705555,-0.211666 z m 0.888999,2.949219 v 7.648217 h -1.777998 v -7.648217 z"
         id="path394" /><path
         d="m 77.053484,30.266597 q 1.961443,0 2.850442,0.818444 0.903111,0.818444 0.903111,2.257776 0,0.860777 -0.366889,1.622777 -0.366888,0.747888 -1.241777,1.213554 -0.860777,0.451555 -2.342442,0.451555 h -1.001888 v 3.71122 H 74.04782 V 30.266597 Z m -0.112889,1.495777 h -1.086554 v 3.372553 h 0.818443 q 1.100666,0 1.693332,-0.395111 0.606778,-0.409222 0.606778,-1.326443 0,-0.832555 -0.493889,-1.241777 -0.493888,-0.409222 -1.53811,-0.409222 z"
         id="path396" /><path
         d="m 85.661248,32.552595 q 1.481665,0 2.243665,0.649111 0.77611,0.649111 0.77611,2.003776 v 5.136441 H 87.425135 L 87.072358,39.28359 h -0.05644 q -0.493888,0.620889 -1.044221,0.917222 -0.550333,0.282222 -1.495777,0.282222 -1.03011,0 -1.707443,-0.578555 -0.677333,-0.578555 -0.677333,-1.79211 0,-1.185332 0.860778,-1.777999 0.874888,-0.592666 2.638775,-0.663221 l 1.326444,-0.04233 v -0.380999 q 0,-0.719667 -0.352778,-1.030111 -0.352777,-0.324555 -0.987777,-0.324555 -0.578555,0 -1.114777,0.169333 -0.52211,0.169333 -1.044221,0.395111 l -0.564444,-1.241777 q 0.564444,-0.296333 1.28411,-0.479777 0.733777,-0.183445 1.523999,-0.183445 z m 0.324555,4.205108 q -1.171221,0.04233 -1.622776,0.409222 -0.451556,0.352778 -0.451556,0.959555 0,0.550333 0.310445,0.790222 0.324555,0.225777 0.846666,0.225777 0.77611,0 1.312332,-0.437444 0.536222,-0.451555 0.536222,-1.326443 v -0.649111 z"
         id="path398" /><path
         d="m 94.91812,32.552595 q 0.183444,0 0.395111,0.01411 0.225778,0.01411 0.381,0.05644 l -0.155222,1.650999 q -0.141111,-0.02822 -0.338667,-0.04233 -0.197555,-0.02822 -0.352777,-0.02822 -0.564444,0 -1.058333,0.239889 -0.493888,0.225777 -0.804333,0.719666 -0.296333,0.479777 -0.296333,1.213555 v 3.965219 h -1.777998 v -7.648217 h 1.368776 l 0.254,1.326444 h 0.08467 q 0.338666,-0.606777 0.931332,-1.03011 0.592667,-0.437445 1.368777,-0.437445 z"
         id="path400" /><path
         d="m 99.913431,40.483034 q -1.650998,0 -2.596442,-0.945444 -0.945444,-0.945444 -0.945444,-2.977442 0,-1.41111 0.465667,-2.285998 0.479777,-0.889 1.312332,-1.298222 0.832555,-0.423333 1.904996,-0.423333 0.71967,0 1.28411,0.141111 0.56445,0.141111 0.95956,0.338667 l -0.52211,1.396999 q -0.43745,-0.169333 -0.87489,-0.282222 -0.43745,-0.127 -0.84667,-0.127 -1.862663,0 -1.862663,2.525887 0,1.227666 0.465667,1.848554 0.479777,0.620888 1.368776,0.620888 0.635,0 1.12889,-0.155222 0.49389,-0.155222 0.94544,-0.423333 v 1.53811 q -0.43744,0.254 -0.94544,0.381 -0.49389,0.127 -1.241779,0.127 z"
         id="path402" /><path
         d="m 106.96897,32.552595 q 1.53811,0 2.42711,0.917222 0.90311,0.917221 0.90311,2.554109 v 0.903111 h -5.05177 q 0.0282,1.044221 0.57856,1.622776 0.55033,0.564444 1.52399,0.564444 0.73378,0 1.32645,-0.141111 0.59266,-0.155222 1.21355,-0.437444 v 1.425221 q -0.56444,0.268111 -1.17122,0.395111 -0.60678,0.127 -1.45344,0.127 -1.11478,0 -1.98967,-0.423333 -0.86077,-0.437444 -1.35466,-1.312333 -0.47978,-0.874888 -0.47978,-2.173109 0,-1.961443 0.97367,-2.991553 0.97366,-1.030111 2.5541,-1.030111 z m 0,1.312333 q -0.71966,0 -1.17122,0.465666 -0.43744,0.451555 -0.508,1.354666 h 3.28789 q -0.0141,-0.790222 -0.40922,-1.298222 -0.381,-0.52211 -1.19945,-0.52211 z"
         id="path404" /><path
         d="m 113.86929,40.341923 h -1.778 V 29.617487 h 1.778 z"
         id="path406" /></g><path
       d="m 58.057645,27.773339 -7.702551,3.317876 7.708901,3.292474 7.789861,-3.300412 z m 0.315912,7.024688 v 7.954962 l 7.489824,-3.556 v -7.580312 z m -8.067675,4.398962 7.515225,3.556 v -7.954962 l -7.515225,-3.18135 z"
       id="path261"
       style="fill:#0b83e5;fill-opacity:1;stroke-width:0.015875" /><path
       style="fill:none;stroke-width:0.46472"
       d="m 209.02424,154.86733 -13.5765,-6.38938 -0.0166,-14.06401 -0.0165,-14.06401 1.57945,0.65994 c 0.8687,0.36296 7.14241,3.00996 13.94159,5.88222 l 12.36215,5.22228 v 14.57169 c 0,8.01442 -0.15685,14.57145 -0.34854,14.57117 -0.1917,-2.9e-4 -6.45797,-2.87574 -13.92505,-6.3899 z"
       id="path502"
       transform="scale(0.26458333)" /></g></svg>
